<mxfile host="65bd71144e">
    <diagram name="Page-1" id="DJ6BKbwurpMSxT_SNm8M">
        <mxGraphModel dx="852" dy="849" grid="1" gridSize="10" guides="1" tooltips="1" connect="1" arrows="1" fold="1" page="1" pageScale="1" pageWidth="850" pageHeight="1100" math="0" shadow="0">
            <root>
                <mxCell id="0"/>
                <mxCell id="1" parent="0"/>
                <mxCell id="Fuuw-LEFtnRcxWhnYX9C-4" value="&lt;b&gt;User&lt;/b&gt;" style="swimlane;fontStyle=0;childLayout=stackLayout;horizontal=1;startSize=30;horizontalStack=0;resizeParent=1;resizeParentMax=0;resizeLast=0;collapsible=1;marginBottom=0;whiteSpace=wrap;html=1;" parent="1" vertex="1">
                    <mxGeometry x="120" y="280" width="160" height="160" as="geometry"/>
                </mxCell>
                <mxCell id="Fuuw-LEFtnRcxWhnYX9C-7" value="&lt;ul style=&quot;padding-left: 15px; padding-bottom: 0px;&quot;&gt;&lt;li&gt;id (uint64)&lt;/li&gt;&lt;li&gt;username (string)&lt;/li&gt;&lt;li&gt;email (string)&lt;/li&gt;&lt;/ul&gt;" style="text;strokeColor=none;fillColor=none;align=left;verticalAlign=middle;spacingLeft=4;spacingRight=4;overflow=hidden;points=[[0,0.5],[1,0.5]];portConstraint=eastwest;rotatable=0;whiteSpace=wrap;html=1;" parent="Fuuw-LEFtnRcxWhnYX9C-4" vertex="1">
                    <mxGeometry y="30" width="160" height="130" as="geometry"/>
                </mxCell>
                <mxCell id="Fuuw-LEFtnRcxWhnYX9C-8" value="&lt;b&gt;Task&lt;/b&gt;" style="swimlane;fontStyle=0;childLayout=stackLayout;horizontal=1;startSize=30;horizontalStack=0;resizeParent=1;resizeParentMax=0;resizeLast=0;collapsible=1;marginBottom=0;whiteSpace=wrap;html=1;" parent="1" vertex="1">
                    <mxGeometry x="320" y="280" width="160" height="160" as="geometry"/>
                </mxCell>
                <mxCell id="Fuuw-LEFtnRcxWhnYX9C-9" value="&lt;ul style=&quot;padding-left: 15px; padding-bottom: 0px;&quot;&gt;&lt;li&gt;id (uint64)&lt;/li&gt;&lt;li&gt;title (string)&lt;/li&gt;&lt;li&gt;status (uint8)&lt;/li&gt;&lt;li&gt;completion_timeline (map[uint8]date)&lt;/li&gt;&lt;/ul&gt;" style="text;strokeColor=none;fillColor=none;align=left;verticalAlign=middle;spacingLeft=4;spacingRight=4;overflow=hidden;points=[[0,0.5],[1,0.5]];portConstraint=eastwest;rotatable=0;whiteSpace=wrap;html=1;" parent="Fuuw-LEFtnRcxWhnYX9C-8" vertex="1">
                    <mxGeometry y="30" width="160" height="130" as="geometry"/>
                </mxCell>
                <mxCell id="Fuuw-LEFtnRcxWhnYX9C-10" value="SQL DB" style="shape=cylinder3;whiteSpace=wrap;html=1;boundedLbl=1;backgroundOutline=1;size=15;" parent="1" vertex="1">
                    <mxGeometry x="360" y="160" width="80" height="80" as="geometry"/>
                </mxCell>
                <mxCell id="Fuuw-LEFtnRcxWhnYX9C-11" value="" style="endArrow=classic;html=1;rounded=0;exitX=0.5;exitY=1;exitDx=0;exitDy=0;exitPerimeter=0;entryX=0.5;entryY=0;entryDx=0;entryDy=0;" parent="1" source="Fuuw-LEFtnRcxWhnYX9C-10" target="Fuuw-LEFtnRcxWhnYX9C-4" edge="1">
                    <mxGeometry width="50" height="50" relative="1" as="geometry">
                        <mxPoint x="540" y="330" as="sourcePoint"/>
                        <mxPoint x="240" y="280" as="targetPoint"/>
                        <Array as="points">
                            <mxPoint x="200" y="240"/>
                        </Array>
                    </mxGeometry>
                </mxCell>
                <mxCell id="Fuuw-LEFtnRcxWhnYX9C-13" value="" style="endArrow=classic;html=1;rounded=0;" parent="1" edge="1">
                    <mxGeometry width="50" height="50" relative="1" as="geometry">
                        <mxPoint x="400" y="240" as="sourcePoint"/>
                        <mxPoint x="400" y="280" as="targetPoint"/>
                        <Array as="points"/>
                    </mxGeometry>
                </mxCell>
                <mxCell id="Fuuw-LEFtnRcxWhnYX9C-15" value="" style="endArrow=classic;html=1;rounded=0;entryX=0.5;entryY=0;entryDx=0;entryDy=0;" parent="1" target="Fuuw-LEFtnRcxWhnYX9C-19" edge="1">
                    <mxGeometry width="50" height="50" relative="1" as="geometry">
                        <mxPoint x="400" y="240" as="sourcePoint"/>
                        <mxPoint x="560" y="280" as="targetPoint"/>
                        <Array as="points">
                            <mxPoint x="600" y="240"/>
                        </Array>
                    </mxGeometry>
                </mxCell>
                <mxCell id="Fuuw-LEFtnRcxWhnYX9C-19" value="&lt;b&gt;TaskAction&lt;/b&gt;" style="swimlane;fontStyle=0;childLayout=stackLayout;horizontal=1;startSize=30;horizontalStack=0;resizeParent=1;resizeParentMax=0;resizeLast=0;collapsible=1;marginBottom=0;whiteSpace=wrap;html=1;" parent="1" vertex="1">
                    <mxGeometry x="520" y="280" width="160" height="160" as="geometry"/>
                </mxCell>
                <mxCell id="Fuuw-LEFtnRcxWhnYX9C-20" value="&lt;ul style=&quot;padding-left: 15px; padding-bottom: 0px;&quot;&gt;&lt;li&gt;id (uint64)&lt;/li&gt;&lt;li&gt;type (uint8)&lt;/li&gt;&lt;li&gt;user_id (uint64)&lt;/li&gt;&lt;li&gt;task_id (uint64)&lt;/li&gt;&lt;li&gt;action_body (json)&lt;/li&gt;&lt;/ul&gt;" style="text;strokeColor=none;fillColor=none;align=left;verticalAlign=middle;spacingLeft=4;spacingRight=4;overflow=hidden;points=[[0,0.5],[1,0.5]];portConstraint=eastwest;rotatable=0;whiteSpace=wrap;html=1;" parent="Fuuw-LEFtnRcxWhnYX9C-19" vertex="1">
                    <mxGeometry y="30" width="160" height="130" as="geometry"/>
                </mxCell>
                <mxCell id="Fuuw-LEFtnRcxWhnYX9C-24" style="edgeStyle=orthogonalEdgeStyle;rounded=0;orthogonalLoop=1;jettySize=auto;html=1;exitX=0.5;exitY=0.5;exitDx=0;exitDy=0;exitPerimeter=0;" parent="1" source="Fuuw-LEFtnRcxWhnYX9C-21" edge="1">
                    <mxGeometry relative="1" as="geometry">
                        <mxPoint x="200" y="75" as="targetPoint"/>
                    </mxGeometry>
                </mxCell>
                <mxCell id="Fuuw-LEFtnRcxWhnYX9C-21" value="User" style="shape=umlActor;verticalLabelPosition=bottom;verticalAlign=top;html=1;outlineConnect=0;" parent="1" vertex="1">
                    <mxGeometry x="80" y="40" width="40" height="70" as="geometry"/>
                </mxCell>
                <mxCell id="Fuuw-LEFtnRcxWhnYX9C-26" style="edgeStyle=orthogonalEdgeStyle;rounded=0;orthogonalLoop=1;jettySize=auto;html=1;exitX=1;exitY=0.5;exitDx=0;exitDy=0;" parent="1" source="Fuuw-LEFtnRcxWhnYX9C-25" edge="1">
                    <mxGeometry relative="1" as="geometry">
                        <mxPoint x="360" y="75" as="targetPoint"/>
                    </mxGeometry>
                </mxCell>
                <mxCell id="Fuuw-LEFtnRcxWhnYX9C-25" value="Telegram Bot API" style="rounded=0;whiteSpace=wrap;html=1;" parent="1" vertex="1">
                    <mxGeometry x="200" y="50" width="90" height="50" as="geometry"/>
                </mxCell>
                <mxCell id="Fuuw-LEFtnRcxWhnYX9C-28" value="TODO List backend" style="rounded=0;whiteSpace=wrap;html=1;" parent="1" vertex="1">
                    <mxGeometry x="360" y="50" width="90" height="50" as="geometry"/>
                </mxCell>
                <mxCell id="Fuuw-LEFtnRcxWhnYX9C-29" value="" style="endArrow=classic;startArrow=classic;html=1;rounded=0;entryX=1;entryY=0.5;entryDx=0;entryDy=0;" parent="1" target="Fuuw-LEFtnRcxWhnYX9C-28" edge="1">
                    <mxGeometry width="50" height="50" relative="1" as="geometry">
                        <mxPoint x="520" y="75" as="sourcePoint"/>
                        <mxPoint x="480" y="90" as="targetPoint"/>
                    </mxGeometry>
                </mxCell>
                <mxCell id="Fuuw-LEFtnRcxWhnYX9C-30" value="SQL DB" style="shape=cylinder3;whiteSpace=wrap;html=1;boundedLbl=1;backgroundOutline=1;size=15;" parent="1" vertex="1">
                    <mxGeometry x="520" y="40" width="55" height="70" as="geometry"/>
                </mxCell>
                <mxCell id="2" value="&lt;b&gt;API&lt;/b&gt;" style="swimlane;fontStyle=0;childLayout=stackLayout;horizontal=1;startSize=30;horizontalStack=0;resizeParent=1;resizeParentMax=0;resizeLast=0;collapsible=1;marginBottom=0;whiteSpace=wrap;html=1;" parent="1" vertex="1">
                    <mxGeometry x="120" y="480" width="160" height="160" as="geometry"/>
                </mxCell>
                <mxCell id="3" value="&lt;ul style=&quot;padding-left: 15px; padding-bottom: 0px;&quot;&gt;&lt;li&gt;create_task&lt;br&gt;&lt;/li&gt;&lt;li&gt;update_task&lt;br&gt;&lt;/li&gt;&lt;li&gt;get_task_journal&lt;br&gt;&lt;/li&gt;&lt;li&gt;get_journal&lt;br&gt;&lt;/li&gt;&lt;li&gt;get_tasks&lt;/li&gt;&lt;/ul&gt;" style="text;strokeColor=none;fillColor=none;align=left;verticalAlign=middle;spacingLeft=4;spacingRight=4;overflow=hidden;points=[[0,0.5],[1,0.5]];portConstraint=eastwest;rotatable=0;whiteSpace=wrap;html=1;" parent="2" vertex="1">
                    <mxGeometry y="30" width="160" height="130" as="geometry"/>
                </mxCell>
            </root>
        </mxGraphModel>
    </diagram>
</mxfile>